<svg xmlns="http://www.w3.org/2000/svg" viewBox="0 0 80 116.157" fill="currentColor">
  
  <path d="M 26.84 55.762 L 26.84 28.328 L 0 45.501 L 0 21.71 L 33.159 0 L 46.841 0 L 80 21.71 L 80 45.501 L 53.16 27.733 L 53.16 55.762 L 26.84 55.762 Z"></path>
  
  <g transform="translate(0 60.395)">
    <path d="M 62.825 0 C 75.316 0 80 5.651 80 14.573 L 80 19.554 C 80 25.875 75.242 30.038 69.07 31.227 C 75.242 32.194 80 35.539 80 42.603 L 80 55.762 L 52.49 55.762 L 52.49 47.509 C 52.49 42.157 50.185 40.743 44.015 40.743 L 27.51 40.743 L 27.51 55.762 L 0 55.762 L 0 0 L 62.825 0 Z M 27.51 16.433 L 27.51 24.312 L 46.171 24.312 C 50.781 24.312 52.565 23.049 52.565 20.298 C 52.565 17.473 50.781 16.433 46.171 16.433 L 27.51 16.433 Z" fill-rule="nonzero"></path>
  </g>
</svg>